<?xml version="1.0" standalone="no"?>
<!DOCTYPE svg PUBLIC "-//W3C//DTD SVG 20010904//EN"
 "http://www.w3.org/TR/2001/REC-SVG-20010904/DTD/svg10.dtd">
<svg version="1.0" xmlns="http://www.w3.org/2000/svg"
 width="750.000000pt" height="750.000000pt" viewBox="0 0 750.000000 750.000000"
 preserveAspectRatio="xMidYMid meet">
<metadata>
Created by potrace 1.11, written by Peter Selinger 2001-2013
</metadata>
<g transform="translate(0.000000,750.000000) scale(0.100000,-0.100000)"
fill="#000000" stroke="none">
<path d="M3506 7405 c-3 -9 -6 -22 -5 -28 0 -7 5 -1 10 12 5 13 8 26 5 28 -2
2 -6 -3 -10 -12z"/>
<path d="M3486 7345 c-3 -9 -6 -22 -5 -28 0 -7 5 -1 10 12 5 13 8 26 5 28 -2
2 -6 -3 -10 -12z"/>
<path d="M3447 7193 c-45 -190 -78 -422 -96 -663 -18 -245 -19 -280 -10 -274
5 3 9 40 9 84 0 185 54 614 105 844 14 60 23 111 21 113 -2 2 -15 -44 -29
-104z"/>
<path d="M5991 7214 c0 -11 3 -14 6 -6 3 7 2 16 -1 19 -3 4 -6 -2 -5 -13z"/>
<path d="M4562 7200 c0 -14 2 -19 5 -12 2 6 2 18 0 25 -3 6 -5 1 -5 -13z"/>
<path d="M6920 7145 c0 -5 5 -17 10 -25 5 -8 10 -10 10 -5 0 6 -5 17 -10 25
-5 8 -10 11 -10 5z"/>
<path d="M4552 7110 c0 -14 2 -19 5 -12 2 6 2 18 0 25 -3 6 -5 1 -5 -13z"/>
<path d="M2029 7048 c-37 -57 -92 -166 -147 -288 -30 -68 -102 -283 -128 -385
-66 -251 -112 -545 -121 -762 -3 -84 -8 -153 -11 -153 -3 0 -64 -9 -135 -21
-71 -11 -131 -18 -135 -15 -20 21 144 636 274 1024 35 106 64 196 64 200 -2
26 -128 -343 -187 -543 -73 -251 -161 -606 -166 -673 -1 -16 -23 -22 -176 -47
-210 -35 -204 -45 9 -15 82 12 155 18 160 15 6 -3 10 -2 10 3 0 5 24 13 52 16
58 8 613 9 662 2 17 -3 87 -8 156 -11 69 -3 154 -10 190 -15 36 -5 76 -10 89
-10 50 0 11 11 -95 26 -116 17 -765 44 -758 32 3 -4 -2 -5 -10 -2 -12 5 -13 9
-3 19 7 7 13 10 15 6 1 -4 62 1 135 11 72 10 218 25 322 33 l190 14 -180 -5
c-100 -2 -242 -13 -320 -24 -77 -11 -141 -20 -144 -20 -2 0 -1 62 2 138 22
501 193 1125 397 1448 22 35 38 64 35 64 -3 0 -24 -28 -46 -62z"/>
<path d="M6004 7005 c0 -60 1 -84 3 -52 2 32 2 81 0 110 -2 29 -3 3 -3 -58z"/>
<path d="M6950 7075 c0 -5 5 -17 10 -25 5 -8 10 -10 10 -5 0 6 -5 17 -10 25
-5 8 -10 11 -10 5z"/>
<path d="M3300 7039 c-7 -11 -10 -23 -7 -25 2 -2 9 7 15 21 14 30 7 33 -8 4z"/>
<path d="M4543 7020 c0 -25 2 -35 4 -22 2 12 2 32 0 45 -2 12 -4 2 -4 -23z"/>
<path d="M6970 7025 c0 -5 5 -17 10 -25 5 -8 10 -10 10 -5 0 6 -5 17 -10 25
-5 8 -10 11 -10 5z"/>
<path d="M3259 6973 c-22 -46 -22 -50 1 -15 13 18 20 35 18 37 -3 3 -11 -7
-19 -22z"/>
<path d="M6991 6975 c1 -19 18 -51 18 -35 0 8 -4 22 -9 30 -5 8 -9 11 -9 5z"/>
<path d="M4533 6900 c0 -36 2 -50 4 -32 2 17 2 47 0 65 -2 17 -4 3 -4 -33z"/>
<path d="M1788 6925 c-3 -11 -9 -29 -13 -40 -3 -11 1 -7 10 8 9 16 15 33 12
40 -2 6 -6 3 -9 -8z"/>
<path d="M7016 6895 c4 -16 11 -37 15 -45 6 -10 7 -4 3 15 -4 17 -11 37 -15
45 -6 10 -7 4 -3 -15z"/>
<path d="M3187 6848 c-19 -35 -45 -81 -57 -103 -30 -53 -171 -334 -205 -410
-115 -255 -211 -546 -259 -784 -14 -68 -26 -125 -28 -127 -2 -1 -35 6 -73 16
-93 26 -117 24 -35 -2 48 -15 60 -22 46 -27 -12 -5 22 -20 110 -50 217 -72
368 -135 599 -246 77 -38 134 -70 127 -73 -7 -2 -23 3 -35 10 -78 51 -687 308
-728 308 -24 0 -50 -220 -47 -405 1 -97 1 -95 9 45 8 146 26 331 34 338 11 12
456 -166 671 -268 l101 -48 7 -44 c17 -107 160 -587 172 -576 2 3 -11 51 -30
109 -81 248 -143 485 -131 497 3 3 0 11 -6 19 -16 18 4 17 41 -2 17 -9 30 -13
30 -10 0 2 -17 13 -39 24 l-38 20 -16 103 c-31 204 -57 478 -58 619 0 52 -5
103 -10 114 -27 59 36 -703 67 -807 5 -18 -53 5 -211 84 -58 30 -450 201 -521
228 -22 9 -22 10 -8 87 74 403 238 823 523 1346 24 42 41 77 38 77 -3 0 -21
-28 -40 -62z"/>
<path d="M1722 6753 c-18 -47 -31 -87 -29 -89 2 -2 18 35 37 81 18 47 31 87
29 89 -2 3 -19 -34 -37 -81z"/>
<path d="M5992 6810 c0 -19 2 -27 5 -17 2 9 2 25 0 35 -3 9 -5 1 -5 -18z"/>
<path d="M4515 6614 c-4 -119 -4 -239 1 -267 7 -38 10 22 12 216 1 147 1 267
-2 267 -2 0 -7 -97 -11 -216z"/>
<path d="M7041 6804 c0 -11 3 -14 6 -6 3 7 2 16 -1 19 -3 4 -6 -2 -5 -13z"/>
<path d="M7051 6764 c0 -11 3 -14 6 -6 3 7 2 16 -1 19 -3 4 -6 -2 -5 -13z"/>
<path d="M5982 6725 c0 -16 2 -22 5 -12 2 9 2 23 0 30 -3 6 -5 -1 -5 -18z"/>
<path d="M7062 6720 c0 -14 4 -38 8 -55 l8 -30 0 30 c0 17 -4 41 -8 55 l-8 25
0 -25z"/>
<path d="M5972 6660 c0 -19 2 -27 5 -17 2 9 2 25 0 35 -3 9 -5 1 -5 -18z"/>
<path d="M7087 6550 c3 -47 7 -87 9 -89 7 -8 3 94 -6 134 -6 28 -6 14 -3 -45z"/>
<path d="M5955 6570 c-4 -23 -5 -43 -2 -46 2 -3 7 14 11 37 4 23 5 44 2 46 -2
2 -7 -14 -11 -37z"/>
<path d="M5941 6494 c0 -11 3 -14 6 -6 3 7 2 16 -1 19 -3 4 -6 -2 -5 -13z"/>
<path d="M5932 6440 c0 -14 2 -19 5 -12 2 6 2 18 0 25 -3 6 -5 1 -5 -13z"/>
<path d="M7104 6315 c0 -77 2 -107 3 -67 2 40 2 103 0 140 -2 37 -3 4 -3 -73z"/>
<path d="M5916 6374 c-4 -20 -5 -38 -3 -40 3 -3 8 11 11 32 4 20 5 38 3 40 -3
3 -8 -11 -11 -32z"/>
<path d="M5896 6289 c-3 -18 -4 -34 -2 -36 2 -3 7 10 11 27 4 17 5 34 2 36 -2
3 -7 -10 -11 -27z"/>
<path d="M4518 6253 c5 -59 10 -63 11 -10 1 26 -3 47 -7 47 -4 0 -6 -17 -4
-37z"/>
<path d="M7086 6072 c-4 -57 -6 -106 -3 -109 7 -6 20 157 15 187 -2 14 -7 -21
-12 -78z"/>
<path d="M5836 6064 c-4 -14 -5 -28 -3 -31 3 -2 8 8 11 23 4 14 5 28 3 31 -3
2 -8 -8 -11 -23z"/>
<path d="M4543 6020 c0 -25 2 -35 4 -22 2 12 2 32 0 45 -2 12 -4 2 -4 -23z"/>
<path d="M5806 5959 c-10 -33 -16 -63 -13 -65 2 -2 11 24 21 57 9 34 15 63 13
66 -2 2 -12 -24 -21 -58z"/>
<path d="M4552 5940 c0 -14 2 -19 5 -12 2 6 2 18 0 25 -3 6 -5 1 -5 -13z"/>
<path d="M7072 5930 c0 -14 2 -19 5 -12 2 6 2 18 0 25 -3 6 -5 1 -5 -13z"/>
<path d="M4562 5870 c0 -14 2 -19 5 -12 2 6 2 18 0 25 -3 6 -5 1 -5 -13z"/>
<path d="M5752 5788 c-12 -33 -21 -63 -19 -65 2 -2 14 24 26 58 13 33 21 62
19 65 -2 2 -14 -24 -26 -58z"/>
<path d="M7042 5740 c0 -14 2 -19 5 -12 2 6 2 18 0 25 -3 6 -5 1 -5 -13z"/>
<path d="M4591 5704 c0 -11 3 -14 6 -6 3 7 2 16 -1 19 -3 4 -6 -2 -5 -13z"/>
<path d="M7032 5680 c0 -14 2 -19 5 -12 2 6 2 18 0 25 -3 6 -5 1 -5 -13z"/>
<path d="M4601 5654 c0 -11 3 -14 6 -6 3 7 2 16 -1 19 -3 4 -6 -2 -5 -13z"/>
<path d="M5697 5631 c-4 -17 -3 -21 5 -13 5 5 8 16 6 23 -3 8 -7 3 -11 -10z"/>
<path d="M7016 5619 c-3 -18 -4 -34 -2 -36 2 -3 7 10 11 27 4 17 5 34 2 36 -2
3 -7 -10 -11 -27z"/>
<path d="M4611 5614 c0 -11 3 -14 6 -6 3 7 2 16 -1 19 -3 4 -6 -2 -5 -13z"/>
<path d="M7001 5544 c0 -11 3 -14 6 -6 3 7 2 16 -1 19 -3 4 -6 -2 -5 -13z"/>
<path d="M5642 5488 c-12 -28 -20 -53 -17 -56 4 -4 26 44 39 86 13 40 0 23
-22 -30z"/>
<path d="M6986 5489 c-3 -18 -4 -34 -2 -36 2 -3 7 10 11 27 4 17 5 34 2 36 -2
3 -7 -10 -11 -27z"/>
<path d="M2438 5463 c7 -3 16 -2 19 1 4 3 -2 6 -13 5 -11 0 -14 -3 -6 -6z"/>
<path d="M2380 5437 c0 -3 32 -15 71 -27 40 -12 81 -27 93 -35 29 -18 86 -29
86 -16 0 8 -101 43 -195 67 -11 3 -28 8 -37 10 -10 3 -18 3 -18 1z"/>
<path d="M6971 5425 c-1 -11 -4 -31 -6 -45 l-6 -25 11 25 c6 13 9 33 7 45 -4
19 -4 19 -6 0z"/>
<path d="M1633 5365 c0 -22 2 -30 4 -17 2 12 2 30 0 40 -3 9 -5 -1 -4 -23z"/>
<path d="M1307 5284 c-43 -229 -74 -539 -81 -817 -3 -98 -8 -183 -12 -189 -4
-6 -1 -9 7 -6 8 2 16 18 17 34 3 26 72 134 111 174 61 61 132 209 130 269 -1
17 -4 11 -10 -17 -14 -75 -54 -148 -128 -238 -4 -5 -30 -39 -56 -75 l-48 -64
6 190 c6 220 27 437 63 653 28 166 28 231 1 86z"/>
<path d="M6946 5319 c-3 -18 -4 -34 -2 -36 2 -3 7 10 11 27 4 17 5 34 2 36 -2
3 -7 -10 -11 -27z"/>
<path d="M1643 5265 c0 -27 2 -38 4 -22 2 15 2 37 0 50 -2 12 -4 0 -4 -28z"/>
<path d="M1921 5294 c0 -11 3 -14 6 -6 3 7 2 16 -1 19 -3 4 -6 -2 -5 -13z"/>
<path d="M3661 5254 c0 -11 3 -14 6 -6 3 7 2 16 -1 19 -3 4 -6 -2 -5 -13z"/>
<path d="M5535 5239 c-9 -17 -15 -33 -13 -35 3 -2 12 12 21 31 21 43 13 47 -8
4z"/>
<path d="M6917 5208 c-9 -37 -17 -73 -16 -80 0 -7 9 19 20 57 10 39 17 74 16
80 -2 5 -11 -21 -20 -57z"/>
<path d="M1932 5235 c0 -16 2 -22 5 -12 2 9 2 23 0 30 -3 6 -5 -1 -5 -18z"/>
<path d="M1640 5144 c0 -8 5 -12 10 -9 6 4 8 11 5 16 -9 14 -15 11 -15 -7z"/>
<path d="M3681 5144 c0 -11 3 -14 6 -6 3 7 2 16 -1 19 -3 4 -6 -2 -5 -13z"/>
<path d="M1951 5140 c0 -8 4 -24 9 -35 5 -13 9 -14 9 -5 0 8 -4 24 -9 35 -5
13 -9 14 -9 5z"/>
<path d="M6881 5064 c-7 -25 -10 -48 -8 -51 3 -2 10 17 16 43 7 25 10 48 8 51
-3 2 -10 -17 -16 -43z"/>
<path d="M1605 5059 c-4 -6 -5 -12 -2 -15 2 -3 7 2 10 11 7 17 1 20 -8 4z"/>
<path d="M3701 5050 c-2 -27 78 -304 122 -425 47 -130 136 -335 172 -400 12
-22 36 -65 52 -95 64 -117 88 -158 154 -256 78 -117 211 -285 260 -329 18 -16
4 4 -32 45 -98 112 -235 305 -310 435 -182 319 -295 589 -385 920 -18 66 -33
113 -33 105z"/>
<path d="M1577 4995 c-9 -19 -15 -35 -12 -35 7 0 37 61 33 66 -3 2 -12 -12
-21 -31z"/>
<path d="M1991 5010 c0 -8 4 -22 9 -30 12 -18 12 -2 0 25 -6 13 -9 15 -9 5z"/>
<path d="M6861 4984 c0 -11 3 -14 6 -6 3 7 2 16 -1 19 -3 4 -6 -2 -5 -13z"/>
<path d="M3631 4944 c0 -11 3 -14 6 -6 3 7 2 16 -1 19 -3 4 -6 -2 -5 -13z"/>
<path d="M1539 4928 c-7 -13 -19 -34 -28 -48 -10 -15 -11 -21 -3 -16 13 8 56
86 48 86 -3 0 -11 -10 -17 -22z"/>
<path d="M6836 4899 c-8 -42 0 -50 9 -9 4 17 5 34 2 36 -2 3 -7 -10 -11 -27z"/>
<path d="M6821 4834 c0 -11 3 -14 6 -6 3 7 2 16 -1 19 -3 4 -6 -2 -5 -13z"/>
<path d="M2613 4795 c0 -27 2 -38 4 -22 2 15 2 37 0 50 -2 12 -4 0 -4 -28z"/>
<path d="M3641 4824 c0 -11 3 -14 6 -6 3 7 2 16 -1 19 -3 4 -6 -2 -5 -13z"/>
<path d="M1465 4810 c-3 -5 -1 -10 4 -10 6 0 11 5 11 10 0 6 -2 10 -4 10 -3 0
-8 -4 -11 -10z"/>
<path d="M6800 4760 c-7 -28 -10 -53 -8 -55 3 -3 10 18 16 47 7 28 11 53 8 55
-2 2 -9 -19 -16 -47z"/>
<path d="M3651 4744 c0 -11 3 -14 6 -6 3 7 2 16 -1 19 -3 4 -6 -2 -5 -13z"/>
<path d="M5400 4741 l-65 -6 70 -8 c80 -9 93 -11 195 -28 41 -6 81 -15 88 -19
8 -4 -64 -10 -160 -14 -177 -6 -360 -27 -413 -45 -27 -10 -26 -10 15 -6 25 3
75 10 111 15 109 15 295 25 454 24 150 -1 150 -1 385 -61 631 -163 1062 -306
1352 -448 40 -20 64 -28 53 -19 -27 22 -240 124 -350 167 -334 130 -891 296
-1220 364 -114 23 -276 61 -327 77 -33 10 -48 11 -48 3 0 -7 -4 -7 -12 1 -12
12 -18 13 -128 3z m113 -8 c-7 -2 -19 -2 -25 0 -7 3 -2 5 12 5 14 0 19 -2 13
-5z"/>
<path d="M2622 4715 c0 -16 2 -22 5 -12 2 9 2 23 0 30 -3 6 -5 -1 -5 -18z"/>
<path d="M5209 4698 c-8 -4 -60 -25 -117 -48 -114 -45 -226 -99 -257 -125 -19
-16 -19 -16 7 -1 15 9 49 23 75 32 26 9 94 38 150 65 57 27 109 49 117 49 7 0
16 3 20 8 4 4 24 12 44 19 37 11 37 11 6 10 -17 -1 -37 -4 -45 -9z"/>
<path d="M6765 4615 c-10 -42 -16 -78 -13 -80 2 -2 12 30 22 71 9 42 15 78 13
80 -2 2 -12 -30 -22 -71z"/>
<path d="M3662 4650 c0 -19 2 -27 5 -17 2 9 2 25 0 35 -3 9 -5 1 -5 -18z"/>
<path d="M2632 4640 c0 -14 2 -19 5 -12 2 6 2 18 0 25 -3 6 -5 1 -5 -13z"/>
<path d="M1680 4643 c-43 -7 -84 -26 -98 -46 -8 -10 -46 -54 -85 -98 -69 -77
-71 -79 -84 -57 -12 22 -12 21 -7 -9 10 -49 -13 -41 -25 10 l-11 42 5 -51 c3
-47 1 -54 -28 -81 -68 -64 -307 -226 -437 -296 -36 -19 -109 -54 -162 -77 -54
-24 -95 -46 -93 -51 3 -4 -8 -10 -25 -14 -16 -4 -30 -11 -30 -16 0 -18 -112
-59 -164 -60 -29 -1 -39 -4 -23 -6 16 -3 25 -9 21 -15 -4 -7 4 -8 23 -4 31 7
51 3 200 -38 81 -22 306 -124 277 -125 -6 -1 -53 16 -105 37 -93 38 -169 62
-139 43 8 -5 94 -39 190 -76 96 -37 183 -76 193 -86 10 -10 23 -19 30 -19 39
0 375 -154 383 -175 3 -6 3 -60 2 -120 l-3 -109 -25 46 c-13 26 -26 45 -28 43
-4 -3 17 -41 80 -150 10 -16 27 -48 38 -70 11 -22 30 -51 41 -65 19 -24 19
-23 -1 19 -22 44 -28 91 -33 274 -1 42 -1 77 0 77 1 0 23 -12 49 -26 25 -14
43 -21 40 -15 -4 5 -24 20 -46 32 -22 13 -40 26 -40 31 0 4 27 -8 59 -27 33
-19 64 -35 69 -35 6 0 12 -4 14 -9 2 -5 19 -18 38 -29 19 -11 34 -25 33 -30
-2 -7 4 -9 14 -5 11 4 14 3 9 -5 -5 -8 -1 -10 10 -5 11 4 15 3 10 -5 -4 -6 1
-10 11 -10 10 0 27 -3 38 -8 18 -7 19 -6 6 10 -8 9 -28 24 -45 33 -17 9 -35
22 -39 29 -4 8 -14 14 -21 14 -7 0 -13 6 -13 13 0 8 28 -5 68 -32 67 -45 91
-72 70 -79 -6 -2 -8 -8 -5 -13 3 -6 11 -5 20 2 14 11 15 10 18 -13 1 -7 10
-12 20 -10 10 2 16 -1 12 -6 -3 -5 0 -9 7 -9 7 0 57 -34 112 -75 89 -66 167
-117 140 -91 -5 6 -66 52 -135 104 -69 51 -143 109 -165 129 -22 20 -66 55
-97 79 -78 58 -80 71 -3 16 17 -12 37 -26 45 -30 17 -10 -101 102 -259 246
-57 52 -124 113 -150 136 -25 24 -40 43 -33 43 7 0 10 5 7 10 -3 6 -14 10 -24
10 -9 0 -49 25 -87 56 -38 30 -84 62 -102 71 -28 13 -122 110 -122 125 0 3 26
18 58 33 55 26 111 59 234 139 43 28 62 36 70 28 14 -14 90 37 83 56 -3 7 -1
10 5 7 12 -7 125 81 223 175 l78 75 147 3 c81 2 181 -1 222 -5 l75 -8 7 -90
c4 -49 15 -134 24 -187 14 -79 20 -96 31 -87 7 6 13 17 13 23 0 10 24 13 68 8
42 -6 110 -126 119 -212 3 -33 10 -57 15 -54 4 3 22 -6 39 -21 17 -14 60 -39
95 -55 51 -24 68 -38 84 -70 11 -21 16 -41 11 -44 -4 -3 -11 -23 -15 -43 -3
-21 -12 -51 -21 -66 -13 -25 -47 -175 -44 -195 3 -20 -2 -43 -9 -38 -4 2 -14
1 -21 -3 -20 -13 12 -121 56 -194 42 -70 191 -238 207 -235 6 2 27 -7 46 -19
20 -12 76 -28 130 -38 52 -9 104 -20 116 -25 36 -14 173 122 227 227 21 40 23
97 4 90 -8 -3 -20 -1 -28 4 -21 13 -19 154 3 199 16 33 36 117 36 150 0 8 3
23 7 33 4 11 3 17 -5 17 -9 0 -9 4 1 17 12 15 12 16 -7 11 -17 -4 -20 -2 -17
13 3 10 -2 28 -11 41 -9 12 -16 33 -16 46 0 19 3 21 19 13 15 -9 20 -7 24 9
12 45 36 3 38 -65 1 -19 2 -18 11 3 6 12 17 22 24 22 7 0 15 8 17 18 4 16 5
16 6 0 0 -10 6 -18 11 -18 6 0 10 8 10 18 1 16 1 16 10 0 9 -15 19 -81 35
-231 4 -35 10 -55 17 -51 6 4 7 33 3 78 -7 75 -42 287 -52 313 -11 27 13 11
86 -61 39 -37 71 -64 71 -58 0 6 -14 22 -31 36 -17 14 -28 30 -25 35 4 5 -16
35 -43 67 -27 32 -49 63 -48 68 1 6 -3 10 -10 11 -6 0 -15 4 -20 9 -5 5 -3 6
5 2 26 -15 10 9 -55 81 -59 65 -164 161 -293 266 -19 16 -28 25 -20 21 13 -7
13 -5 2 8 -8 9 -20 14 -28 11 -8 -3 -14 -2 -13 3 3 21 -2 28 -11 14 -8 -12
-11 -12 -27 1 -10 9 -47 33 -83 54 -36 21 -82 52 -102 67 -21 16 -41 27 -46
24 -5 -3 -68 24 -140 59 -73 36 -144 67 -159 70 -19 3 -11 -3 22 -19 67 -33
47 -32 -56 3 -94 32 -334 82 -503 106 -99 14 -333 19 -396 8z m1026 -179 c18
-14 18 -14 -6 -3 -31 14 -36 19 -24 19 6 0 19 -7 30 -16z m144 -49 c33 -17 40
-28 13 -18 -23 8 -60 33 -50 33 5 0 21 -7 37 -15z m145 -75 c11 -18 -10 -10
-40 16 l-30 25 32 -15 c17 -9 35 -20 38 -26z m-194 13 c13 -16 12 -17 -3 -4
-17 13 -22 21 -14 21 2 0 10 -8 17 -17z m375 -121 c67 -49 72 -69 7 -23 -35
24 -63 45 -63 47 0 10 21 1 56 -24z m75 -159 c13 -16 12 -17 -3 -4 -17 13 -22
21 -14 21 2 0 10 -8 17 -17z m-2252 -7 c-2 -2 -15 -9 -29 -15 -24 -11 -24 -11
-6 3 16 13 49 24 35 12z m2497 -198 c35 -27 64 -51 64 -54 0 -4 -8 0 -18 9
-10 10 -24 17 -30 17 -6 0 -15 6 -19 14 -4 7 -19 19 -33 26 -31 17 -190 161
-190 173 0 5 36 -24 81 -64 45 -41 110 -95 145 -121z m87 -26 c101 -103 127
-132 114 -132 -1 0 -67 66 -147 146 -80 81 -131 138 -115 126 17 -11 83 -74
148 -140z m-2888 98 c-3 -5 -12 -10 -18 -10 -7 0 -6 4 3 10 19 12 23 12 15 0z
m406 -46 c19 -21 25 -32 14 -25 -26 14 -65 47 -65 55 0 14 19 3 51 -30z m1609
-29 c0 -19 -4 -35 -10 -35 -5 0 -10 16 -10 35 0 19 5 35 10 35 6 0 10 -16 10
-35z m90 6 c0 -6 -4 -13 -10 -16 -5 -3 -10 1 -10 9 0 9 5 16 10 16 6 0 10 -4
10 -9z m-2245 -31 c-3 -5 -14 -10 -23 -10 -15 0 -15 2 -2 10 20 13 33 13 25 0z
m626 -27 l34 -36 -37 28 c-21 15 -38 31 -38 36 0 14 4 11 41 -28z m-571 7 c0
-5 -4 -10 -10 -10 -5 0 -10 5 -10 10 0 6 5 10 10 10 6 0 10 -4 10 -10z m715
-118 c-6 -6 -34 11 -39 24 -4 11 0 10 18 -3 13 -10 23 -19 21 -21z m-311 -43
c37 -17 65 -33 63 -35 -2 -2 -37 11 -78 30 -41 19 -69 35 -63 35 7 1 42 -13
78 -30z m531 -138 c206 -175 270 -244 89 -96 -216 177 -278 231 -282 245 -6
16 41 -19 193 -149z m-138 -45 c29 -14 53 -31 53 -39 0 -11 -28 -1 -97 35 -54
27 -99 51 -101 53 -9 9 96 -27 145 -49z m188 -76 c3 -6 -1 -7 -9 -4 -18 7 -21
14 -7 14 6 0 13 -4 16 -10z m110 -108 c-3 -3 -11 0 -18 7 -9 10 -8 11 6 5 10
-3 15 -9 12 -12z"/>
<path d="M3110 4594 c62 -51 158 -142 221 -212 86 -94 95 -102 69 -62 -35 52
-251 262 -291 283 l-34 19 35 -28z"/>
<path d="M3672 4590 c0 -14 2 -19 5 -12 2 6 2 18 0 25 -3 6 -5 1 -5 -13z"/>
<path d="M3681 4514 c0 -11 3 -14 6 -6 3 7 2 16 -1 19 -3 4 -6 -2 -5 -13z"/>
<path d="M5279 4513 c-13 -16 -12 -17 4 -4 16 13 21 21 13 21 -2 0 -10 -8 -17
-17z"/>
<path d="M6742 4500 c0 -14 2 -19 5 -12 2 6 2 18 0 25 -3 6 -5 1 -5 -13z"/>
<path d="M2810 4497 c0 -3 24 -22 53 -43 28 -20 46 -31 40 -22 -7 8 -9 19 -5
23 4 5 1 5 -5 1 -7 -4 -13 -3 -13 2 0 7 -14 16 -62 40 -5 2 -8 1 -8 -1z"/>
<path d="M5229 4473 c-13 -16 -12 -17 4 -4 9 7 17 15 17 17 0 8 -8 3 -21 -13z"/>
<path d="M3691 4464 c0 -11 3 -14 6 -6 3 7 2 16 -1 19 -3 4 -6 -2 -5 -13z"/>
<path d="M5170 4430 c-19 -17 -26 -27 -15 -21 19 9 63 51 54 51 -3 0 -20 -14
-39 -30z"/>
<path d="M2915 4443 c9 -9 201 -138 233 -157 6 -4 12 -5 12 -3 0 3 -51 38
-112 79 -119 79 -150 98 -133 81z"/>
<path d="M3702 4410 c0 -14 2 -19 5 -12 2 6 2 18 0 25 -3 6 -5 1 -5 -13z"/>
<path d="M5070 4359 c-22 -18 -22 -19 -3 -10 12 6 25 16 28 21 9 15 3 12 -25
-11z"/>
<path d="M6711 4354 c0 -11 3 -14 6 -6 3 7 2 16 -1 19 -3 4 -6 -2 -5 -13z"/>
<path d="M5971 4325 c-2 -61 72 -405 84 -393 2 2 -5 40 -17 83 -11 44 -31 139
-43 210 -13 72 -24 116 -24 100z"/>
<path d="M5014 4324 c-18 -14 -18 -15 4 -4 12 6 22 13 22 15 0 8 -5 6 -26 -11z"/>
<path d="M6702 4305 c0 -16 2 -22 5 -12 2 9 2 23 0 30 -3 6 -5 -1 -5 -18z"/>
<path d="M3180 4307 c0 -3 19 -15 43 -27 97 -51 222 -169 331 -312 32 -43 61
-78 63 -78 2 0 -20 35 -49 78 -66 96 -226 257 -298 299 -59 34 -90 48 -90 40z"/>
<path d="M5734 4288 l-19 -23 23 19 c21 18 27 26 19 26 -2 0 -12 -10 -23 -22z"/>
<path d="M3630 4295 c0 -5 5 -17 10 -25 5 -8 10 -10 10 -5 0 6 -5 17 -10 25
-5 8 -10 11 -10 5z"/>
<path d="M3731 4264 c0 -11 3 -14 6 -6 3 7 2 16 -1 19 -3 4 -6 -2 -5 -13z"/>
<path d="M5698 4243 c-18 -21 -31 -43 -25 -43 2 0 13 14 25 30 25 33 24 41 0
13z"/>
<path d="M6691 4244 c0 -11 3 -14 6 -6 3 7 2 16 -1 19 -3 4 -6 -2 -5 -13z"/>
<path d="M6681 4174 c0 -11 3 -14 6 -6 3 7 2 16 -1 19 -3 4 -6 -2 -5 -13z"/>
<path d="M6671 4094 c0 -11 3 -14 6 -6 3 7 2 16 -1 19 -3 4 -6 -2 -5 -13z"/>
<path d="M5550 4020 c-6 -11 -8 -20 -6 -20 3 0 10 9 16 20 6 11 8 20 6 20 -3
0 -10 -9 -16 -20z"/>
<path d="M5740 4025 c0 -5 5 -17 10 -25 5 -8 10 -10 10 -5 0 6 -5 17 -10 25
-5 8 -10 11 -10 5z"/>
<path d="M6663 3985 c0 -27 2 -38 4 -22 2 15 2 37 0 50 -2 12 -4 0 -4 -28z"/>
<path d="M5100 3995 c0 -5 5 -17 10 -25 5 -8 10 -10 10 -5 0 6 -5 17 -10 25
-5 8 -10 11 -10 5z"/>
<path d="M5525 3979 c-4 -6 -5 -12 -2 -15 2 -3 7 2 10 11 7 17 1 20 -8 4z"/>
<path d="M5770 3951 c0 -6 4 -13 10 -16 6 -3 7 1 4 9 -7 18 -14 21 -14 7z"/>
<path d="M5126 3917 c3 -10 9 -15 12 -12 3 3 0 11 -7 18 -10 9 -11 8 -5 -6z"/>
<path d="M6060 3905 c0 -5 5 -17 10 -25 5 -8 10 -10 10 -5 0 6 -5 17 -10 25
-5 8 -10 11 -10 5z"/>
<path d="M6662 3880 c0 -19 2 -27 5 -17 2 9 2 25 0 35 -3 9 -5 1 -5 -18z"/>
<path d="M5140 3888 c0 -4 18 -46 39 -92 21 -47 37 -87 35 -89 -3 -3 2 -7 11
-10 8 -4 15 -5 15 -4 -3 11 -99 200 -100 195z"/>
<path d="M4865 3860 c10 -11 20 -20 23 -20 3 0 -3 9 -13 20 -10 11 -20 20 -23
20 -3 0 3 -9 13 -20z"/>
<path d="M6671 3820 c0 -8 4 -24 9 -35 5 -13 9 -14 9 -5 0 8 -4 24 -9 35 -5
13 -9 14 -9 5z"/>
<path d="M2400 3727 c0 -18 45 -165 100 -324 26 -76 46 -120 53 -116 6 4 8 0
4 -11 -4 -9 -3 -15 2 -12 5 3 26 -34 46 -82 72 -168 165 -307 279 -415 87 -83
137 -114 196 -122 40 -5 42 -4 20 6 -92 43 -131 67 -177 106 -29 24 -53 49
-53 54 0 6 4 8 9 4 5 -3 12 -1 16 5 3 5 19 10 36 10 32 0 39 15 10 25 -60 19
-256 260 -317 390 -14 29 -24 42 -24 30 0 -47 -90 197 -159 435 -8 27 -41 41
-41 17z"/>
<path d="M5088 3683 c7 -3 16 -2 19 1 4 3 -2 6 -13 5 -11 0 -14 -3 -6 -6z"/>
<path d="M5 3635 c6 -72 79 -317 215 -725 148 -445 194 -606 234 -820 25 -139
47 -349 45 -441 -1 -52 3 -94 10 -105 25 -39 -2 335 -40 551 -5 33 -15 87 -21
120 -17 96 -95 366 -158 545 -32 91 -90 260 -128 375 -59 176 -86 269 -156
530 -3 11 -3 -2 -1 -30z"/>
<path d="M5255 3650 c9 -16 18 -30 21 -30 2 0 -2 14 -11 30 -9 17 -18 30 -21
30 -2 0 2 -13 11 -30z"/>
<path d="M4880 3545 c-47 -8 -110 -20 -141 -28 -30 -8 -91 -21 -134 -28 -44
-7 -90 -18 -104 -25 -22 -12 -21 -13 20 -9 24 2 75 9 113 15 60 9 444 16 452
7 2 -2 -92 -9 -209 -16 -232 -13 -340 -26 -366 -42 -12 -7 -5 -9 29 -5 157 19
173 19 165 6 -6 -10 -4 -12 10 -6 10 3 46 9 79 12 58 6 60 5 39 -10 -18 -14
-96 -33 -193 -49 -14 -2 31 -5 100 -6 76 -2 117 -6 105 -11 -41 -16 50 -22
166 -10 87 8 140 8 222 -1 59 -6 107 -15 107 -19 0 -4 -60 -6 -132 -3 -73 2
-178 0 -233 -5 -86 -8 -63 -9 170 -10 311 -2 468 -15 578 -48 20 -6 22 -27 3
-46 -10 -10 -14 -52 -15 -160 l-2 -145 37 1 c33 1 41 -4 65 -39 31 -45 54
-124 46 -158 -5 -19 -4 -20 6 -6 13 17 28 9 40 -21 3 -8 6 6 6 33 1 49 14 63
24 26 4 -16 11 -20 25 -17 11 3 26 2 33 -3 11 -7 11 -9 -2 -9 -9 0 -22 -7 -29
-15 -7 -8 -16 -13 -20 -10 -13 8 -20 -9 -9 -25 6 -10 9 -11 9 -2 0 6 5 12 11
12 5 0 7 -4 4 -10 -3 -5 2 -10 11 -10 10 0 14 -3 11 -7 -7 -6 11 -19 63 -45
55 -27 66 -48 69 -130 2 -60 -1 -84 -16 -110 -25 -46 -29 -48 -103 -48 -84 -1
-104 -14 -94 -67 19 -105 122 -230 237 -288 28 -14 43 -25 34 -25 -35 0 -118
52 -172 108 -34 34 -72 89 -97 137 -22 44 -47 87 -54 96 -15 16 -74 234 -74
269 0 18 -17 36 -25 28 -6 -5 39 -203 58 -259 27 -79 76 -199 108 -262 36 -70
137 -227 147 -227 3 0 16 11 27 24 11 13 45 36 75 51 52 26 63 27 190 27 74 0
142 4 150 8 8 4 29 10 45 13 23 5 20 2 -15 -15 -43 -20 -44 -21 -20 -28 35
-10 113 0 123 17 4 7 18 13 30 12 21 -1 20 -2 -3 -9 -23 -7 -23 -8 -3 -9 31
-1 54 9 46 22 -4 6 0 8 10 4 22 -8 128 13 121 24 -8 13 261 -7 471 -36 55 -7
121 -16 148 -19 l47 -6 0 289 0 288 -57 39 c-32 21 -90 70 -129 109 -58 57
-165 157 -237 221 -25 22 -214 161 -262 193 -27 18 -71 48 -96 67 -25 18 -49
31 -52 28 -3 -3 -24 7 -48 22 -24 14 -86 42 -138 61 -53 19 -125 50 -161 70
-79 44 -162 74 -173 64 -4 -5 -65 8 -135 29 -70 20 -156 42 -192 50 -36 7 -92
26 -125 42 -48 23 -55 25 -35 8 l25 -21 -45 6 c-25 4 -94 18 -154 31 -60 13
-129 24 -155 24 -25 1 -86 8 -136 17 -126 22 -216 24 -315 8z m303 -21 c48 -9
87 -18 85 -19 -2 -2 -104 -1 -228 2 -124 4 -219 8 -212 11 7 2 50 10 95 17 89
15 126 13 260 -11z m-220 -131 c-7 -2 -19 -2 -25 0 -7 3 -2 5 12 5 14 0 19 -2
13 -5z m707 -40 c69 -19 182 -64 177 -70 -3 -2 -22 3 -43 12 -22 9 -86 29
-143 46 -57 16 -107 31 -109 34 -7 7 52 -4 118 -22z m485 -684 c-20 -38 -26
-37 -14 3 5 18 9 34 9 36 0 2 4 0 10 -3 6 -4 4 -17 -5 -36z m649 -6 c10 -38
17 -143 9 -143 -19 0 -33 44 -32 100 2 58 13 78 23 43z m-36 -74 l3 -34 -16
29 c-18 34 -19 49 -2 44 6 -3 13 -20 15 -39z m291 -26 c47 -36 110 -86 138
-110 29 -25 57 -41 63 -38 6 3 13 -1 17 -11 3 -9 22 -32 42 -50 29 -28 33 -36
21 -43 -8 -5 -18 -7 -22 -5 -11 7 -76 -32 -109 -65 -39 -39 -170 -105 -288
-145 -58 -20 -108 -35 -113 -34 -5 2 10 27 32 57 43 57 44 59 31 79 -6 10 -19
-5 -45 -52 -35 -62 -53 -85 -40 -51 5 13 2 14 -20 5 l-26 -10 17 28 c15 24 13
24 -20 -7 -37 -35 -49 -33 -22 3 22 29 18 42 -5 21 -17 -16 -20 -16 -15 -3 4
11 -1 20 -14 28 -25 13 -27 46 -6 97 8 19 15 57 15 83 0 41 15 105 27 120 2 2
30 7 61 11 100 12 113 16 127 35 13 17 14 15 15 -29 0 -77 16 -46 30 58 7 52
15 95 17 95 3 0 44 -30 92 -67z m-329 42 c0 -8 -9 -15 -20 -15 -11 0 -20 7
-20 15 0 8 9 15 20 15 11 0 20 -7 20 -15z m460 -413 c0 -9 -44 -32 -58 -32 -9
1 41 39 51 40 4 0 7 -4 7 -8z m-385 -232 c-27 -12 -35 -12 -35 0 0 6 12 10 28
9 24 0 25 -1 7 -9z"/>
<path d="M1366 3405 c10 -44 24 -78 29 -73 6 5 -18 84 -28 95 -5 4 -5 -6 -1
-22z"/>
<path d="M23 3275 c0 -38 2 -53 4 -32 2 20 2 52 0 70 -2 17 -4 1 -4 -38z"/>
<path d="M1401 3310 c0 -8 6 -26 15 -40 l15 -25 -7 25 c-3 14 -10 32 -15 40
-7 13 -8 13 -8 0z"/>
<path d="M4768 3293 c6 -2 18 -2 25 0 6 3 1 5 -13 5 -14 0 -19 -2 -12 -5z"/>
<path d="M1588 3273 c7 -3 16 -2 19 1 4 3 -2 6 -13 5 -11 0 -14 -3 -6 -6z"/>
<path d="M1239 3132 c11 -16 28 -35 38 -43 9 -8 2 5 -17 29 -38 48 -52 57 -21
14z"/>
<path d="M3586 3068 c-23 -38 -32 -43 -27 -14 1 5 -5 6 -14 2 -13 -5 -15 -1
-10 17 9 27 -27 -21 -77 -102 -37 -62 -137 -168 -169 -179 -18 -7 -15 -11 30
-36 28 -15 51 -31 51 -35 0 -10 -44 -47 -83 -72 -35 -21 -32 -24 7 -9 34 13
104 77 122 112 9 16 40 63 70 105 47 67 98 160 125 231 13 35 3 26 -25 -20z"/>
<path d="M1300 3061 c0 -6 4 -13 10 -16 6 -3 7 1 4 9 -7 18 -14 21 -14 7z"/>
<path d="M21 3000 c-3 -116 36 -744 64 -1025 17 -166 55 -403 85 -537 36 -154
107 -384 116 -375 2 2 -5 30 -16 63 -114 327 -191 861 -220 1529 -6 132 -15
276 -19 320 -7 74 -8 76 -10 25z"/>
<path d="M1345 3010 c10 -11 20 -20 23 -20 3 0 -3 9 -13 20 -10 11 -20 20 -23
20 -3 0 3 -9 13 -20z"/>
<path d="M1870 2950 c-47 -8 -134 -40 -127 -46 2 -2 30 4 63 12 32 9 92 17
131 18 40 0 69 3 65 7 -13 12 -86 17 -132 9z"/>
<path d="M1483 2810 c2 -36 -2 -130 -9 -210 -8 -80 -20 -219 -28 -310 -15
-171 -39 -351 -57 -431 -7 -32 -7 -62 0 -95 5 -27 23 -120 40 -208 51 -259 93
-370 251 -656 84 -153 162 -268 249 -365 39 -44 120 -143 181 -220 163 -208
253 -314 268 -314 8 -1 -10 26 -40 59 -68 78 -134 157 -160 195 -25 36 92 -81
184 -185 36 -41 69 -72 73 -68 4 4 -33 51 -82 105 -115 129 -244 296 -394 513
-67 96 -146 207 -174 245 -88 119 -215 355 -215 400 0 15 -5 35 -10 45 -22 40
-71 256 -80 348 -22 221 -14 319 55 732 20 118 38 253 41 300 l6 85 -52 50
-52 50 5 -65z m14 -452 c-3 -8 -6 -5 -6 6 -1 11 2 17 5 13 3 -3 4 -12 1 -19z
m434 -1743 c46 -66 118 -165 161 -220 42 -54 75 -101 73 -103 -13 -13 -242
292 -310 413 -40 70 -21 48 76 -90z"/>
<path d="M2125 2801 c-22 -10 -49 -26 -60 -35 -14 -12 -8 -11 23 4 23 11 66
27 95 35 48 13 49 14 17 14 -19 0 -53 -8 -75 -18z"/>
<path d="M1404 2505 c-1 -267 -13 -371 -69 -625 -49 -224 -142 -482 -256 -712
-38 -76 -69 -141 -69 -144 0 -43 138 237 209 424 63 167 109 324 145 497 2 11
4 2 5 -20 4 -83 19 0 18 100 0 60 4 108 11 120 9 16 11 11 6 -30 -3 -27 -2
-47 2 -42 10 10 15 479 6 592 -5 66 -7 24 -8 -160z"/>
<path d="M3138 2633 c6 -2 18 -2 25 0 6 3 1 5 -13 5 -14 0 -19 -2 -12 -5z"/>
<path d="M3320 2494 c-95 -105 -226 -231 -335 -322 l-40 -33 45 23 c50 26 319
290 393 386 27 34 47 62 45 62 -2 0 -51 -52 -108 -116z"/>
<path d="M4533 2005 c-29 -13 -53 -27 -53 -30 0 -3 18 4 40 15 22 11 57 24 77
29 29 7 32 9 13 10 -14 0 -49 -10 -77 -24z"/>
<path d="M6429 1885 c-7 -6 -110 -29 -172 -37 -30 -4 -72 -14 -94 -22 -35 -12
-41 -12 -49 2 -8 13 -14 11 -38 -12 -16 -14 -34 -26 -41 -26 -14 0 -134 -36
-187 -56 -21 -7 -45 -11 -54 -7 -13 5 -15 3 -9 -7 6 -10 4 -12 -8 -7 -10 3
-17 2 -17 -3 0 -4 -13 -11 -30 -15 -16 -4 -32 -11 -35 -16 -4 -5 -15 -9 -26
-9 -26 0 -262 -122 -356 -183 -180 -118 -349 -282 -459 -447 -36 -56 -64 -103
-62 -106 3 -2 22 24 44 58 120 196 296 368 516 504 102 63 263 141 348 169 30
10 73 26 95 36 47 22 315 99 430 124 44 10 84 21 89 25 5 5 14 6 20 4 6 -2 52
4 101 15 80 17 85 20 44 20 -25 1 -48 -1 -50 -4z"/>
<path d="M380 1781 c0 -6 4 -13 10 -16 6 -3 7 1 4 9 -7 18 -14 21 -14 7z"/>
<path d="M5710 1743 c0 -4 -30 -7 -67 -6 -47 2 -62 0 -47 -6 41 -18 148 -17
142 1 -5 14 -28 23 -28 11z"/>
<path d="M5808 1743 c7 -3 16 -2 19 1 4 3 -2 6 -13 5 -11 0 -14 -3 -6 -6z"/>
<path d="M498 1490 c6 -39 -15 -212 -39 -334 -23 -115 -19 -141 5 -34 35 153
57 380 38 392 -5 3 -6 -8 -4 -24z"/>
<path d="M5805 1381 c-6 -6 -42 -25 -80 -44 -80 -40 -189 -113 -256 -171 -54
-48 -31 -37 32 16 54 44 217 148 233 148 18 0 113 60 96 60 -9 0 -20 -4 -25
-9z"/>
<path d="M1 1364 c0 -11 3 -14 6 -6 3 7 2 16 -1 19 -3 4 -6 -2 -5 -13z"/>
<path d="M5537 1354 c-16 -9 -27 -18 -24 -20 3 -3 20 4 38 15 39 24 28 28 -14
5z"/>
<path d="M10 1333 c0 -14 65 -196 79 -221 6 -9 10 -15 11 -12 0 11 -89 244
-90 233z"/>
<path d="M5429 1277 c-73 -61 -147 -140 -223 -242 -80 -106 -214 -341 -201
-353 3 -3 17 22 32 54 84 185 312 477 442 567 14 9 22 19 20 22 -3 2 -34 -19
-70 -48z"/>
<path d="M5359 1063 c-78 -83 -167 -185 -186 -213 -22 -34 -3 -15 85 85 38 44
91 102 116 129 43 46 51 56 43 56 -2 0 -28 -26 -58 -57z"/>
<path d="M100 1085 c0 -5 5 -17 10 -25 5 -8 10 -10 10 -5 0 6 -5 17 -10 25 -5
8 -10 11 -10 5z"/>
<path d="M120 1031 c0 -6 4 -13 10 -16 6 -3 7 1 4 9 -7 18 -14 21 -14 7z"/>
<path d="M422 1003 c-15 -48 -8 -55 8 -8 7 20 10 38 8 41 -3 2 -10 -13 -16
-33z"/>
<path d="M2975 1010 c-3 -5 1 -10 9 -10 37 0 12 -20 -39 -31 -61 -14 -95 -39
-52 -39 13 0 44 7 68 16 70 26 221 45 233 30 34 -40 956 -524 956 -501 0 2
-80 45 -177 95 -201 105 -217 113 -473 255 -102 57 -211 115 -242 131 -42 20
-55 31 -47 40 7 9 -8 12 -63 11 -40 0 -94 3 -120 7 -29 4 -49 3 -53 -4z"/>
<path d="M961 950 c-37 -69 -276 -427 -357 -537 -54 -73 -64 -90 -43 -78 36
23 449 638 449 669 0 20 -20 -2 -49 -54z"/>
<path d="M3250 977 c14 -6 57 -26 95 -44 39 -19 61 -26 50 -17 -25 20 -140 74
-157 73 -7 0 -2 -5 12 -12z"/>
<path d="M7430 853 c-191 -128 -362 -201 -775 -328 -99 -31 -184 -61 -190 -67
-7 -8 -6 -9 3 -4 6 4 101 34 210 67 403 122 573 194 767 327 60 42 59 41 54
45 -2 2 -33 -16 -69 -40z"/>
<path d="M4743 855 c-3 -9 -3 -18 -1 -21 3 -3 8 4 11 16 6 23 -1 27 -10 5z"/>
<path d="M4721 784 c0 -11 3 -14 6 -6 3 7 2 16 -1 19 -3 4 -6 -2 -5 -13z"/>
<path d="M5086 733 c-6 -14 -5 -15 5 -6 7 7 10 15 7 18 -3 3 -9 -2 -12 -12z"/>
<path d="M4701 714 c0 -11 3 -14 6 -6 3 7 2 16 -1 19 -3 4 -6 -2 -5 -13z"/>
<path d="M856 663 c-6 -14 -5 -15 5 -6 7 7 10 15 7 18 -3 3 -9 -2 -12 -12z"/>
<path d="M214 553 c-31 -55 -84 -128 -161 -225 -29 -37 -53 -72 -53 -78 0 -14
11 -3 61 60 81 103 201 290 185 290 -2 0 -17 -21 -32 -47z"/>
<path d="M7347 490 c-133 -68 -291 -165 -371 -229 -21 -17 -35 -31 -30 -31 4
0 2 -6 -4 -12 -7 -7 -17 -13 -21 -13 -5 0 -57 -46 -115 -102 l-107 -103 400 0
401 0 0 280 c0 154 -3 280 -7 280 -5 0 -70 -32 -146 -70z"/>
<path d="M779 523 c-13 -16 -12 -17 4 -4 16 13 21 21 13 21 -2 0 -10 -8 -17
-17z"/>
<path d="M6395 447 c-226 -82 -319 -119 -422 -167 -68 -32 -123 -61 -123 -64
0 -2 51 19 113 48 125 60 250 110 375 151 45 15 85 31 88 36 3 5 4 9 2 8 -2
-1 -16 -6 -33 -12z"/>
<path d="M4662 370 c0 -19 2 -27 5 -17 2 9 2 25 0 35 -3 9 -5 1 -5 -18z"/>
<path d="M7029 373 c-13 -16 -12 -17 4 -4 9 7 17 15 17 17 0 8 -8 3 -21 -13z"/>
<path d="M513 278 c-18 -21 -94 -135 -157 -235 -14 -24 -22 -43 -16 -43 6 0
23 21 38 46 49 83 154 239 166 246 7 5 7 8 0 8 -6 0 -20 -10 -31 -22z"/>
<path d="M6889 263 l-24 -26 27 19 c15 10 28 22 28 27 0 12 -5 8 -31 -20z"/>
<path d="M5794 184 c-18 -14 -18 -15 4 -4 12 6 22 13 22 15 0 8 -5 6 -26 -11z"/>
<path d="M6786 185 c-11 -8 -17 -17 -14 -20 2 -3 13 4 23 15 21 23 18 25 -9 5z"/>
<path d="M6674 94 c-81 -67 -130 -113 -89 -84 54 39 183 150 174 150 -3 0 -41
-30 -85 -66z"/>
<path d="M5714 134 c-18 -14 -18 -15 4 -4 12 6 22 13 22 15 0 8 -5 6 -26 -11z"/>
</g>
</svg>
